<svg width="78" height="20" viewBox="0 0 78 20" fill="none" xmlns="http://www.w3.org/2000/svg">
<path d="M19.0301 0H17.1194C16.8092 0 16.5239 0.173696 16.3874 0.446649L8.08716 16.8859C7.9755 17.1216 7.9755 17.3945 8.08716 17.6179L9.05491 19.5409C9.19138 19.8139 9.47674 19.9876 9.78692 19.9876C10.0971 19.9876 10.3825 19.8139 10.5189 19.5285L19.7745 1.17866C19.8986 0.930521 19.8862 0.620346 19.7373 0.384614C19.576 0.148882 19.3155 0 19.0301 0Z" fill="black"/>
<path d="M7.98782 9.2804L3.45928 0.446649C3.32281 0.173696 3.03745 0 2.72727 0H0.816603C0.531243 0 0.270697 0.148883 0.121814 0.397022C-0.0270695 0.645161 -0.0394768 0.942927 0.0845927 1.19107L5.55606 11.9603C5.69253 12.2333 5.97789 12.4069 6.28807 12.4069C6.59824 12.4069 6.8836 12.2333 7.02007 11.9603L7.98782 10.0372C8.09948 9.78908 8.09948 9.51613 7.98782 9.2804Z" fill="black"/>
<path d="M30.9407 0C28.1987 0 25.829 0.992556 23.8935 2.95285C21.9332 4.91315 20.9407 7.28288 20.9407 10C20.9407 12.7543 21.9084 15.062 23.8935 17.0471C25.8786 19.0323 28.1863 20 30.9407 20C33.695 20 36.0027 19.0323 37.9878 17.0471C39.9853 15.0993 40.9655 12.7916 40.9655 10C40.9655 7.23325 39.9977 4.92556 37.9878 2.95285C36.0027 0.967742 33.7074 0 30.9407 0ZM35.6429 14.7146C34.365 15.9926 32.7893 16.6377 30.9407 16.6377C29.0796 16.6377 27.4915 15.9926 26.2136 14.7146C24.9357 13.4367 24.2905 11.8486 24.2905 9.98759C24.2905 8.15136 24.9357 6.56327 26.2136 5.28536C27.5039 3.99504 29.092 3.33747 30.9407 3.33747C32.7645 3.33747 34.3402 3.99504 35.6429 5.28536C36.9332 6.57568 37.5908 8.16377 37.5908 9.98759C37.5908 11.8362 36.9332 13.4243 35.6429 14.7146Z" fill="black"/>
<path d="M77.479 0.40943C77.3302 0.161291 77.0696 0 76.7718 0H69.4145C67.5659 0 66.0274 0.632754 64.7123 1.94789C63.3972 3.28784 62.7644 4.8263 62.7644 6.65012C62.7644 8.07692 63.149 9.31762 63.9431 10.4218C64.7247 11.5509 65.68 12.3449 66.8711 12.8164L66.7222 13.139L63.8438 18.8089C63.7197 19.0571 63.7321 19.3672 63.881 19.603C64.0299 19.8387 64.2905 19.9876 64.5758 19.9876H64.7371H65.5436H66.4741C66.4989 19.9876 66.5237 19.9876 66.5609 19.9876C66.5733 19.9876 66.5857 19.9876 66.5857 19.9876C66.623 19.9876 66.6602 19.9752 66.6974 19.9628H66.7098C66.7718 19.938 66.8339 19.9132 66.8959 19.8759C66.9083 19.8759 66.9083 19.8635 66.9207 19.8635C66.9704 19.8263 67.02 19.7891 67.0696 19.7395C67.082 19.727 67.082 19.727 67.0944 19.7146C67.1316 19.6774 67.1689 19.6402 67.1937 19.5906L71.4989 11.2159C71.5113 11.2035 71.5113 11.1911 71.5113 11.1787C71.6354 10.9305 71.6354 10.6452 71.4989 10.397C71.3624 10.1613 71.1019 10.0124 70.8289 10C70.8041 10 70.7917 10 70.7669 10C70.1465 10 69.4517 10.0124 69.4517 10.0124C69.0919 10.0124 68.757 9.96278 68.4344 9.85112C67.9629 9.68983 67.5163 9.42928 67.1317 9.03226C66.4617 8.3871 66.1267 7.60546 66.1267 6.66253C66.1267 5.75682 66.4617 4.97519 67.1317 4.34243C67.7892 3.68486 68.546 3.36228 69.4517 3.36228H75.8786C76.0895 3.36228 76.3004 3.27543 76.4617 3.12655L76.5237 3.06452C76.5733 3.01489 76.6106 2.96526 76.6478 2.90323L77.5163 1.24069C77.6155 0.967742 77.6155 0.657569 77.479 0.40943Z" fill="black"/>
<path d="M48.1491 12.3573C48.298 12.2084 48.3848 11.9975 48.3848 11.7866V0.818857C48.3848 0.372207 48.025 0 47.566 0H45.8662C45.4196 0 45.0474 0.3598 45.0474 0.818857V13.4988C45.0474 13.8337 45.2459 14.1315 45.556 14.2556C45.6553 14.2928 45.767 14.3176 45.8662 14.3176C46.0771 14.3176 46.2881 14.2308 46.4494 14.0819L48.1491 12.3573Z" fill="black"/>
<path d="M59.3028 16.6501H58.5336H50.9406H48.7197C48.4964 16.6501 48.2979 16.737 48.1366 16.8859L46.4244 18.6104C46.1887 18.8462 46.1267 19.1936 46.2507 19.5037C46.3748 19.8015 46.6726 20 47.0076 20H49.8736H57.2309H57.876C58.3227 20 58.8066 19.6402 58.9554 19.1812L59.8612 17.4566C60.01 17.0099 59.7619 16.6501 59.3028 16.6501Z" fill="black"/>
</svg>
