<svg width="17" height="18" viewBox="0 0 17 18" fill="none" xmlns="http://www.w3.org/2000/svg">
<path d="M7.91984 6.52379H8.97584V12.8838H7.91984V6.52379ZM8.44784 5.68379C8.23984 5.68379 8.06784 5.61579 7.93184 5.47979C7.79584 5.34379 7.72784 5.17179 7.72784 4.96379C7.72784 4.75579 7.79584 4.58379 7.93184 4.44779C8.06784 4.31179 8.23984 4.24379 8.44784 4.24379C8.65584 4.24379 8.82784 4.31179 8.96384 4.44779C9.09984 4.58379 9.16784 4.75579 9.16784 4.96379C9.16784 5.17179 9.09984 5.34379 8.96384 5.47979C8.82784 5.61579 8.65584 5.68379 8.44784 5.68379Z" fill="#FF4D26"/>
<circle cx="8.44531" cy="8.77441" r="7.94531" stroke="#FF4D26"/>
</svg>
