<svg width="20" height="20" viewBox="0 0 20 20" fill="none" xmlns="http://www.w3.org/2000/svg">
<path d="M9.84935 17.0101C9.07363 17.0101 8.44336 16.3798 8.44336 15.6041C8.44336 14.8284 9.07363 14.1981 9.84935 14.1981C10.6251 14.1981 11.2553 14.8284 11.2553 15.6041C11.2553 16.3798 10.6251 17.0101 9.84935 17.0101Z" fill="black"/>
<path d="M14.594 17.0101C13.8183 17.0101 13.188 16.3798 13.188 15.6041C13.188 14.8284 13.8183 14.1981 14.594 14.1981C15.3697 14.1981 16 14.8284 16 15.6041C16 16.3798 15.3697 17.0101 14.594 17.0101Z" fill="black"/>
<path d="M7.76456 13.3386L4.39283 4.31211H2.5505C2.45795 4.31211 2.37641 4.25482 2.34335 4.16887L2.01499 3.28737C1.98855 3.21906 1.99736 3.14413 2.03923 3.08463C2.08111 3.02513 2.14722 2.98987 2.21994 2.98987H5.15753C5.25009 2.98987 5.33162 3.04717 5.36468 3.13311L8.68352 12.0164H16.6589C16.769 12.0164 16.8263 12.0891 16.8462 12.12C16.866 12.1508 16.9057 12.2346 16.855 12.3337L16.4142 13.2152C16.3768 13.2902 16.3019 13.3364 16.2181 13.3364H7.76456V13.3386Z" fill="black"/>
<path d="M12.366 10.4077C12.2646 10.4077 12.1765 10.3394 12.1522 10.2402L11.9319 9.3587C11.9142 9.29259 11.9319 9.22427 11.9715 9.16918C12.0134 9.11629 12.0773 9.08544 12.1456 9.08544H14.9135L16.1608 5.92527H6.04126V4.60303H17.7784C17.8533 4.60303 17.9194 4.63829 17.9613 4.69999C18.0032 4.7617 18.012 4.83662 17.9833 4.90494L15.8104 10.4077H12.3638H12.366Z" fill="black"/>
</svg>
