<svg width="56" height="55" viewBox="0 0 56 55" fill="none" xmlns="http://www.w3.org/2000/svg">
<path d="M40 8L40.7071 7.29289C40.3166 6.90237 39.6834 6.90237 39.2929 7.29289L40 8ZM40 8C40.7071 7.29289 40.7073 7.2931 40.7075 7.29331L40.708 7.29376L40.709 7.29482L40.7117 7.2975L40.7192 7.30509L40.7425 7.32904C40.7616 7.34885 40.7877 7.37633 40.8198 7.41104C40.884 7.48041 40.9726 7.57906 41.0774 7.70352C41.2862 7.95149 41.5638 8.30704 41.8423 8.7422C42.3852 9.59047 43 10.8468 43 12.25C43 13.9069 41.6569 15.25 40 15.25C38.3431 15.25 37 13.9069 37 12.25C37 10.8468 37.6148 9.59047 38.1577 8.7422C38.4362 8.30704 38.7138 7.95149 38.9226 7.70352C39.0274 7.57906 39.116 7.48041 39.1802 7.41104C39.2123 7.37633 39.2384 7.34885 39.2575 7.32904L39.2808 7.30509L39.2883 7.2975L39.291 7.29482L39.292 7.29376L39.2925 7.29331C39.2927 7.2931 39.2929 7.29289 40 8ZM39.2912 8.70542C39.2912 8.70539 39.2912 8.7054 39.2912 8.70542L39.2912 8.70542ZM40.7088 8.70542C40.7088 8.7054 40.7088 8.70539 40.7088 8.70542L40.7088 8.70542Z" stroke="#FF4D26" stroke-width="2" stroke-linejoin="round"/>
<path d="M42.5 22.5V19C42.5 17.6193 41.3807 16.5 40 16.5V16.5C38.6193 16.5 37.5 17.6193 37.5 19V25.25" stroke="#FF4D26" stroke-width="2" stroke-linecap="round"/>
<path d="M16 8L16.7071 7.29289C16.3166 6.90237 15.6834 6.90237 15.2929 7.29289L16 8ZM16 8C16.7071 7.29289 16.7073 7.2931 16.7075 7.29331L16.708 7.29376L16.709 7.29482L16.7117 7.2975L16.7192 7.30509L16.7425 7.32904C16.7616 7.34885 16.7877 7.37633 16.8198 7.41104C16.884 7.48041 16.9726 7.57906 17.0774 7.70352C17.2862 7.95149 17.5638 8.30704 17.8423 8.7422C18.3852 9.59047 19 10.8468 19 12.25C19 13.9069 17.6569 15.25 16 15.25C14.3431 15.25 13 13.9069 13 12.25C13 10.8468 13.6148 9.59047 14.1577 8.7422C14.4362 8.30704 14.7138 7.95149 14.9226 7.70352C15.0274 7.57906 15.116 7.48041 15.1802 7.41104C15.2123 7.37633 15.2384 7.34885 15.2575 7.32904L15.2808 7.30509L15.2883 7.2975L15.291 7.29482L15.292 7.29376L15.2925 7.29331C15.2927 7.2931 15.2929 7.29289 16 8ZM15.2912 8.70542C15.2912 8.70539 15.2912 8.7054 15.2912 8.70542L15.2912 8.70542ZM16.7088 8.70542C16.7088 8.7054 16.7088 8.70539 16.7088 8.70542L16.7088 8.70542Z" stroke="#FF4D26" stroke-width="2" stroke-linejoin="round"/>
<path d="M18.5 22.5V19C18.5 17.6193 17.3807 16.5 16 16.5V16.5C14.6193 16.5 13.5 17.6193 13.5 19V25.25" stroke="#FF4D26" stroke-width="2" stroke-linecap="round"/>
<path d="M28 8L28.7071 7.29289C28.3166 6.90237 27.6834 6.90237 27.2929 7.29289L28 8ZM28 8C28.7071 7.29289 28.7073 7.2931 28.7075 7.29331L28.708 7.29376L28.709 7.29482L28.7117 7.2975L28.7192 7.30509L28.7425 7.32904C28.7616 7.34885 28.7877 7.37633 28.8198 7.41104C28.884 7.48041 28.9726 7.57906 29.0774 7.70352C29.2862 7.95149 29.5638 8.30704 29.8423 8.7422C30.3852 9.59047 31 10.8468 31 12.25C31 13.9069 29.6569 15.25 28 15.25C26.3431 15.25 25 13.9069 25 12.25C25 10.8468 25.6148 9.59047 26.1577 8.7422C26.4362 8.30704 26.7138 7.95149 26.9226 7.70352C27.0274 7.57906 27.116 7.48041 27.1802 7.41104C27.2123 7.37633 27.2384 7.34885 27.2575 7.32904L27.2808 7.30509L27.2883 7.2975L27.291 7.29482L27.292 7.29376L27.2925 7.29331C27.2927 7.2931 27.2929 7.29289 28 8ZM27.2912 8.70542C27.2912 8.70539 27.2912 8.7054 27.2912 8.70542L27.2912 8.70542ZM28.7088 8.70542C28.7088 8.7054 28.7088 8.70539 28.7088 8.70542L28.7088 8.70542Z" stroke="#FF4D26" stroke-width="2" stroke-linejoin="round"/>
<path d="M30.5 22.5V19C30.5 17.6193 29.3807 16.5 28 16.5V16.5C26.6193 16.5 25.5 17.6193 25.5 19V25.25" stroke="#FF4D26" stroke-width="2" stroke-linecap="round"/>
<path d="M51.5 41.5V28.5C51.5 26.8431 50.1569 25.5 48.5 25.5H7.5C5.84315 25.5 4.5 26.8431 4.5 28.5V41.5" stroke="#FF4D26" stroke-width="2" stroke-linecap="round" stroke-linejoin="round"/>
<path d="M10.5 35.5L15.0578 31.955C15.7801 31.3933 16.7914 31.3933 17.5136 31.955L20.8435 34.545C21.5658 35.1067 22.5771 35.1067 23.2993 34.545L26.6293 31.955C27.3515 31.3933 28.3628 31.3933 29.085 31.955L32.415 34.545C33.1372 35.1067 34.1485 35.1067 34.8707 34.545L38.2007 31.955C38.9229 31.3933 39.9342 31.3933 40.6565 31.955L43.9864 34.545C44.7086 35.1067 45.7199 35.1067 46.4422 34.545L51 31" stroke="#FF4D26" stroke-width="2" stroke-linecap="round" stroke-linejoin="round"/>
<path d="M39 41.5H1V45C1 46.6569 2.34315 48 4 48H52C53.6569 48 55 46.6569 55 45V41.5H48.25" stroke="#FF4D26" stroke-width="2" stroke-linecap="round"/>
</svg>
