<svg width="56" height="55" viewBox="0 0 56 55" fill="none" xmlns="http://www.w3.org/2000/svg">
<path d="M52 27C52 29.4775 51.6249 31.8656 50.9292 34.1115C50.0154 37.061 48.5477 39.768 46.6469 42.1107C44.6948 44.5165 42.2867 46.5371 39.5549 48.0406C36.1282 49.9267 32.1909 51 28 51C14.7452 51 4 40.2548 4 27C4 13.7452 14.7452 3 28 3C41.2548 3 52 13.7452 52 27Z" stroke="#FF4D26" stroke-width="2"/>
<path d="M22 11L22 43" stroke="#FF4D26" stroke-width="2" stroke-linecap="round"/>
<path d="M36 35L15.5 35" stroke="#FF4D26" stroke-width="2" stroke-linecap="round"/>
<path d="M26.6316 27C26.0793 27 25.6316 27.4477 25.6316 28C25.6316 28.5523 26.0793 29 26.6316 29V27ZM22 12H33V10H22V12ZM40 19V20H42V19H40ZM33 27H26.6316V29H33V27ZM40 20C40 23.866 36.866 27 33 27V29C37.9706 29 42 24.9706 42 20H40ZM33 12C36.866 12 40 15.134 40 19H42C42 14.0294 37.9706 10 33 10V12Z" fill="#FF4D26"/>
</svg>
