<svg width="12" height="12" viewBox="0 0 12 12" fill="none" xmlns="http://www.w3.org/2000/svg">
<path fill-rule="evenodd" clip-rule="evenodd" d="M0.353478 0.353553C0.54874 0.158291 0.865323 0.158291 1.06058 0.353553L11.6672 10.9602C11.8624 11.1554 11.8624 11.472 11.6672 11.6673C11.4719 11.8625 11.1553 11.8625 10.9601 11.6673L0.353478 1.06066C0.158216 0.865398 0.158216 0.548816 0.353478 0.353553Z" fill="#FF4D26"/>
<path fill-rule="evenodd" clip-rule="evenodd" d="M0.353553 11.667C0.158291 11.4718 0.158291 11.1552 0.353553 10.9599L10.9602 0.353322C11.1554 0.15806 11.472 0.15806 11.6673 0.353322C11.8625 0.548584 11.8625 0.865166 11.6673 1.06043L1.06066 11.667C0.865398 11.8623 0.548816 11.8623 0.353553 11.667Z" fill="#FF4D26"/>
</svg>
