<svg width="17" height="17" viewBox="0 0 17 17" fill="none" xmlns="http://www.w3.org/2000/svg">
<path d="M14.8278 10.4387H16.1427L16.1439 4.86124H12.8888C13.3902 4.37928 13.6997 3.73007 13.6997 3.01298C13.6997 1.53204 12.3823 0.327148 10.7631 0.327148C9.56077 0.327148 8.52606 0.991598 8.07197 1.94027C7.61792 0.992736 6.58318 0.327148 5.38088 0.327148C3.76163 0.327148 2.44421 1.53201 2.44421 3.01298C2.44421 3.72888 2.75374 4.37928 3.25513 4.86124H0V10.4387H1.31483V17H14.8279L14.8278 10.4387ZM15.067 5.84617V9.45501H8.61039V5.84617H15.067ZM8.90213 3.01415C8.90213 2.07599 9.73607 1.31328 10.7618 1.31328C11.7876 1.31328 12.6216 2.07599 12.6216 3.01415C12.6216 3.95231 11.7876 4.71501 10.7618 4.71501H8.90213V3.01415ZM5.38224 1.31211C6.40802 1.31211 7.24196 2.07482 7.24196 3.01298V4.71384H5.38224C4.35647 4.71384 3.52253 3.95114 3.52253 3.01298C3.52253 2.07599 4.35647 1.31211 5.38224 1.31211ZM1.07717 9.45483V5.84599H7.5338V9.45483H1.07717ZM2.39328 10.4386H7.53494V16.0161H2.39328V10.4386ZM13.7522 16.0161H8.61055V10.4386H13.7522V16.0161Z" fill="#FF4D26"/>
</svg>
