<svg width="20" height="20" viewBox="0 0 20 20" fill="none" xmlns="http://www.w3.org/2000/svg">
<path d="M10.0009 17.6684C9.95928 17.6684 9.92014 17.6562 9.8859 17.6317C9.69755 17.4947 9.47741 17.3431 9.23525 17.1743C6.96287 15.5868 2.73364 12.6344 2.07321 8.51039C1.81638 6.89355 2.24199 5.26693 3.24487 4.04635C4.11077 2.98965 5.30444 2.38303 6.60085 2.33411C6.65956 2.33411 6.71582 2.33167 6.77207 2.33167C7.88992 2.33167 8.97841 2.74994 9.83698 3.51311L9.99842 3.65742L10.1599 3.51311C11.0184 2.75239 12.1069 2.33167 13.2248 2.33167C13.281 2.33167 13.3397 2.33167 13.396 2.33411C14.6728 2.38059 15.8543 2.97498 16.7202 4.00232C17.7133 5.17887 18.1609 6.75902 17.9481 8.33427C17.6374 10.6507 16.182 12.8693 13.5036 15.1172C13.4669 15.1465 13.4229 15.1636 13.3789 15.1636C13.3373 15.1636 13.2957 15.1514 13.2614 15.1245L12.4518 14.5472C12.3907 14.5032 12.354 14.4323 12.3515 14.3516C12.3491 14.2684 12.3809 14.195 12.442 14.1461C15.277 11.8223 16.6541 9.6209 16.6541 7.41945C16.6541 5.42347 15.1156 3.7993 13.2248 3.7993C13.1 3.7993 12.9753 3.80663 12.8505 3.82131C12.1778 3.89714 11.5199 4.20289 10.9548 4.70433L9.99597 5.55311L8.97352 4.64563C8.34978 4.09038 7.58661 3.7993 6.76963 3.7993C6.7256 3.7993 6.67912 3.7993 6.6351 3.80174C5.74229 3.83599 4.91308 4.24448 4.29667 4.94649C3.60199 5.73901 3.26199 6.81528 3.36228 7.89643C3.57264 10.1444 5.22862 12.4143 8.42805 14.831V14.8359L8.66287 15.0071C9.08604 15.3202 9.48719 15.6039 9.85654 15.8608L9.93482 15.9146L10.9401 16.6337C11.0037 16.6802 11.0404 16.756 11.0404 16.8416C11.0404 16.9273 11.0013 17.0031 10.9377 17.0496L10.7909 17.1523C10.539 17.3284 10.3115 17.4874 10.1158 17.6293C10.0791 17.6562 10.04 17.6684 9.99842 17.6684H10.0009Z" fill="black"/>
</svg>
