<svg width="24" height="24" viewBox="0 0 24 24" fill="none" xmlns="http://www.w3.org/2000/svg">
<path d="M12.0013 23C11.9389 23 11.8802 22.9817 11.8288 22.945C11.5463 22.7396 11.2161 22.5121 10.8529 22.259C7.4443 19.8783 1.10047 15.4507 0.109816 9.26603C-0.275437 6.84131 0.362982 4.40191 1.8673 2.57145C3.16616 0.986762 4.95667 0.0770335 6.90128 0.00366826C6.98933 0.00366826 7.07372 0 7.15811 0C8.83488 0 10.4676 0.627273 11.7555 1.77177L11.9976 1.9882L12.2398 1.77177C13.5276 0.630941 15.1604 0 16.8371 0C16.9215 0 17.0096 0 17.094 0.00366826C19.0092 0.0733652 20.7814 0.964753 22.0802 2.50542C23.5699 4.26986 24.2413 6.63955 23.9221 9.00191C23.0267 15.3116 17.0409 19.538 13.1864 22.226C12.8047 22.4922 12.4673 22.7285 12.1737 22.9413C12.1187 22.9817 12.06 23 11.9976 23H12.0013Z" fill="#FF4D26"/>
</svg>
