<svg width="24" height="24" viewBox="0 0 24 24" fill="none" xmlns="http://www.w3.org/2000/svg">
<path d="M12.0013 23C11.9389 23 11.8802 22.9817 11.8288 22.945C11.5463 22.7396 11.2161 22.5121 10.8529 22.259C7.4443 19.8783 1.10047 15.4507 0.109816 9.26603C-0.275438 6.84131 0.362982 4.40191 1.8673 2.57145C3.16616 0.986762 4.95667 0.0770335 6.90128 0.00366826C6.98933 0.00366826 7.07372 0 7.15811 0C8.83488 0 10.4676 0.627273 11.7555 1.77177L11.9976 1.9882L12.2398 1.77177C13.5276 0.630941 15.1604 0 16.8371 0C16.9215 0 17.0096 0 17.094 0.00366826C19.0092 0.0733652 20.7814 0.964753 22.0802 2.50542C23.5699 4.26986 24.2413 6.63955 23.9221 9.00191C23.4561 12.4758 21.273 15.8029 17.2554 19.174C17.2004 19.218 17.1343 19.2437 17.0683 19.2437C17.0059 19.2437 16.9435 19.2254 16.8922 19.185L15.6777 18.3193C15.586 18.2533 15.5309 18.1469 15.5273 18.0258C15.5236 17.9011 15.5713 17.7911 15.663 17.7177C19.9155 14.2329 21.9812 10.9314 21.9812 7.62998C21.9812 4.63668 19.6733 2.20096 16.8371 2.20096C16.65 2.20096 16.4629 2.21196 16.2758 2.23397C15.2668 2.34769 14.2798 2.80622 13.4322 3.55821L11.994 4.8311L10.4603 3.47018C9.52467 2.63748 8.37991 2.20096 7.15444 2.20096C7.0884 2.20096 7.01869 2.20096 6.95264 2.20463C5.61343 2.25598 4.36961 2.86858 3.44501 3.92137C2.40299 5.10989 1.89299 6.72392 2.04342 8.34529C2.35896 11.7164 4.84292 15.1206 9.64208 18.7448V18.7522L9.99431 19.0089C10.6291 19.4785 11.2308 19.904 11.7848 20.2892L11.9022 20.3699L13.4102 21.4483C13.5056 21.518 13.5607 21.6317 13.5607 21.7601C13.5607 21.8885 13.5019 22.0022 13.4066 22.0719L13.1864 22.226C12.8085 22.4901 12.4673 22.7285 12.1737 22.9413C12.1187 22.9817 12.06 23 11.9976 23H12.0013Z" fill="#C2C2C2"/>
</svg>
