<svg width="20" height="20" viewBox="0 0 20 20" fill="none" xmlns="http://www.w3.org/2000/svg">
<path d="M9.43541 12.0706V11.6471C9.43541 11.4024 9.45894 11.1812 9.506 10.9836C9.56247 10.7859 9.6707 10.5789 9.8307 10.3624C9.9907 10.1459 10.2307 9.90122 10.5507 9.62828C10.946 9.28945 11.2472 8.98357 11.4542 8.71063C11.6613 8.43769 11.7648 8.14593 11.7648 7.83534C11.7648 7.38357 11.6142 7.01181 11.3131 6.72004C11.0119 6.42828 10.5978 6.2824 10.0707 6.2824C9.54364 6.2824 9.12953 6.42828 8.82835 6.72004C8.52717 7.01181 8.37659 7.38357 8.37659 7.83534H7.106C7.106 7.3271 7.22364 6.87063 7.45894 6.46592C7.70364 6.06122 8.04717 5.74122 8.48953 5.50592C8.94129 5.27063 9.46835 5.15298 10.0707 5.15298C10.6825 5.15298 11.2095 5.27063 11.6519 5.50592C12.0942 5.74122 12.4331 6.06122 12.6684 6.46592C12.9131 6.87063 13.0354 7.3271 13.0354 7.83534C13.0354 8.18357 12.9601 8.50828 12.8095 8.80945C12.6684 9.11063 12.4801 9.39298 12.2448 9.65651C12.0095 9.92004 11.7554 10.1695 11.4825 10.4047C11.266 10.5742 11.0966 10.7342 10.9742 10.8847C10.8613 11.0353 10.7813 11.1859 10.7342 11.3365C10.6966 11.4777 10.6778 11.6283 10.6778 11.7883V12.0706H9.43541ZM10.0707 15.3177C9.89188 15.3177 9.72717 15.2706 9.57659 15.1765C9.426 15.0918 9.30364 14.9742 9.20953 14.8236C9.12482 14.673 9.08247 14.5083 9.08247 14.3295C9.08247 14.0471 9.17659 13.8118 9.36482 13.6236C9.56247 13.4353 9.79776 13.3412 10.0707 13.3412C10.3436 13.3412 10.5742 13.4353 10.7625 13.6236C10.9601 13.8118 11.0589 14.0471 11.0589 14.3295C11.0589 14.5083 11.0119 14.673 10.9178 14.8236C10.8331 14.9742 10.7154 15.0918 10.5648 15.1765C10.4236 15.2706 10.2589 15.3177 10.0707 15.3177Z" fill="#202020"/>
<circle cx="10" cy="10" r="9.41177" stroke="#202020" stroke-width="1.17647"/>
</svg>
