<svg width="20" height="20" viewBox="0 0 20 20" fill="none" xmlns="http://www.w3.org/2000/svg">
<path d="M7.53301 13.0836C4.48227 13.0836 2 10.6013 2 7.55059C2 4.49985 4.48227 2.01758 7.53301 2.01758C10.5838 2.01758 13.066 4.49985 13.066 7.55059C13.066 10.6013 10.5838 13.0836 7.53301 13.0836ZM7.53301 3.37648C5.23193 3.37648 3.35891 5.24951 3.35891 7.55059C3.35891 9.85167 5.23193 11.7247 7.53301 11.7247C9.8341 11.7247 11.7071 9.85167 11.7071 7.55059C11.7071 5.24951 9.83636 3.37648 7.53301 3.37648Z" fill="black"/>
<path d="M16.8167 17.9825C16.7578 17.9825 16.7012 17.9598 16.6582 17.9168L11.9994 13.5728C11.9609 13.5343 11.9382 13.4777 11.9382 13.4188C11.9382 13.3576 11.9609 13.301 12.0039 13.258L12.9597 12.2932C13.0027 12.2501 13.0593 12.2252 13.1205 12.2252C13.1816 12.2252 13.236 12.2479 13.279 12.2909L17.9378 16.6349C18.0216 16.7187 18.0216 16.8614 17.9333 16.9497L16.9775 17.9145C16.9345 17.9575 16.8779 17.9825 16.8167 17.9825Z" fill="black"/>
</svg>
