<svg width="20" height="20" viewBox="0 0 20 20" fill="none" xmlns="http://www.w3.org/2000/svg">
<path d="M10.0001 10.9555C7.53028 10.9555 5.52344 8.94641 5.52344 6.47891C5.52344 4.0114 7.53028 2 10.0001 2C12.4698 2 14.4767 4.00912 14.4767 6.47662C14.4767 8.94413 12.4676 10.9532 10.0001 10.9532V10.9555ZM10.0001 3.3683C8.28513 3.3683 6.89174 4.76397 6.89174 6.47662C6.89174 8.18928 8.28741 9.58495 10.0001 9.58495C11.7127 9.58495 13.1084 8.18928 13.1084 6.47662C13.1084 4.76397 11.7127 3.3683 10.0001 3.3683Z" fill="black"/>
<path d="M15.7331 18C15.6168 18 15.5188 17.9087 15.5074 17.7902C15.2816 15.4412 13.3318 13.6693 10.9692 13.6693H9.02846C6.66586 13.6693 4.71603 15.4412 4.49026 17.7902C4.47886 17.911 4.3808 18 4.26449 18H3.35001C3.28388 18 3.22458 17.9726 3.18125 17.9247C3.13793 17.8768 3.1174 17.8175 3.12196 17.7537C3.36369 14.6955 5.96119 12.2987 9.03074 12.2987H10.9714C14.0433 12.2987 16.6385 14.6955 16.8802 17.7537C16.8848 17.8175 16.8643 17.8768 16.8209 17.9247C16.7753 17.9726 16.716 18 16.6522 18H15.7377H15.7331Z" fill="black"/>
</svg>
